# xmcd
#
# Track frame offsets: 
#        150
#        17936
#        44204
#        57896
#        79086
#        114739
#        130716
#        152972
#        178320
#        197526
#
# Disc length: 3278 seconds
#
# Revision: 1
# Processed by: cddbd v1.5.2PL0 Copyright (c) Steve Scherf et al.
# Submitted via: ExactAudioCopy v0.99pb5
#
DISCID=8d0ccc0a
DTITLE=Kevin Selfe And The Tornadoes - Selfe-Contained
DYEAR=2006
DGENRE=Blues
TTITLE0=Messing With A Lion
TTITLE1=Receipt for a Broken Heart
TTITLE2=Whiskey and Women
TTITLE3=You Don't Do Nothing for Me
TTITLE4=Devil's Come Early to Collect his Dues
TTITLE5=Wait on Time
TTITLE6=Just A LIttle Bit
TTITLE7=Another Mule in my Stall
TTITLE8=Rolling Jelly Bean
TTITLE9=Soul Trance
EXTD=YEAR: 2006
EXTT0=
EXTT1=
EXTT2=
EXTT3=
EXTT4=
EXTT5=
EXTT6=
EXTT7=
EXTT8=
EXTT9=
PLAYORDER=
